<svg xmlns="http://www.w3.org/2000/svg" viewBox="-7 -4 1011 837" width="1011" height="837" role="img" aria-label="니짐내짐 nijim logo">
<g transform="translate(0.000000,824.000000) scale(0.100000,-0.100000)"
fill="#FFFFFF" stroke="none">
<path d="M2749 8172 l-896 -2 -15 -18 c-15 -17 -21 -42 -58 -217 -12 -55 -30
-138 -41 -185 -44 -186 -49 -206 -55 -245 -3 -22 -15 -78 -26 -125 -40 -174
-57 -248 -77 -345 -12 -55 -30 -138 -41 -185 -11 -47 -22 -103 -25 -125 -3
-22 -12 -62 -20 -90 -8 -27 -19 -75 -26 -105 -6 -30 -20 -93 -31 -140 -10 -47
-25 -116 -33 -155 -8 -38 -22 -99 -30 -135 -8 -36 -24 -108 -36 -160 -26 -120
-55 -252 -79 -355 -10 -44 -28 -125 -40 -180 -12 -55 -26 -120 -32 -145 -12
-49 -41 -183 -63 -295 -8 -38 -21 -97 -29 -130 -16 -67 -42 -179 -62 -270 -7
-33 -18 -82 -24 -110 -6 -27 -20 -88 -30 -135 -50 -229 -61 -278 -71 -320 -6
-25 -20 -85 -30 -135 -9 -49 -22 -108 -28 -130 -9 -38 -26 -116 -71 -320 -11
-49 -27 -121 -36 -160 -9 -38 -22 -101 -30 -140 -7 -38 -23 -108 -34 -155 -12
-47 -25 -107 -31 -135 -11 -59 -41 -192 -65 -290 -9 -38 -20 -90 -24 -115 -4
-25 -15 -74 -23 -110 -9 -36 -23 -99 -32 -140 -14 -67 -47 -210 -77 -340 -5
-25 -18 -83 -28 -130 -11 -47 -24 -107 -30 -135 -6 -27 -20 -90 -31 -140 -11
-49 -28 -126 -39 -170 -10 -44 -31 -138 -45 -210 -14 -71 -33 -152 -41 -179
-7 -26 -14 -57 -14 -68 0 -12 -9 -55 -19 -97 -10 -42 -29 -121 -41 -176 -13
-55 -31 -134 -41 -175 -16 -66 -47 -226 -63 -317 l-5 -33 924 0 925 0 0 28 c0
16 7 51 15 79 8 28 22 86 30 129 14 76 29 144 75 339 12 50 29 131 39 180 10
50 23 110 29 135 6 25 21 90 33 145 11 55 25 118 31 140 5 22 18 83 28 135 10
52 23 109 28 125 6 17 20 80 32 140 13 61 28 130 35 155 8 25 16 63 20 85 3
22 15 76 25 120 10 44 28 125 40 180 12 55 30 136 40 180 10 44 28 125 40 180
12 55 30 138 40 185 11 47 29 130 41 185 38 178 70 319 85 369 8 26 14 57 14
67 0 19 30 154 55 244 7 28 16 70 20 95 3 25 15 81 25 125 10 44 24 105 30
135 7 30 21 91 32 135 10 44 27 123 38 175 11 52 24 113 29 135 30 120 51 218
51 234 0 10 7 41 15 67 8 27 21 83 29 124 15 75 53 245 82 375 45 194 56 244
65 290 5 28 18 86 28 130 11 44 29 125 41 180 24 114 46 213 61 268 l10 38 12
-4 12 -4 12 -49 c21 -84 50 -195 78 -294 44 -157 67 -243 76 -288 5 -24 11
-47 14 -51 5 -8 16 -50 60 -216 13 -49 33 -124 45 -165 23 -81 52 -188 71
-260 6 -25 20 -74 29 -110 10 -36 28 -101 40 -145 12 -44 29 -105 37 -135 9
-30 22 -77 29 -105 7 -27 22 -86 34 -130 12 -44 27 -105 34 -135 7 -30 20 -77
29 -105 9 -27 25 -88 37 -135 12 -47 30 -116 41 -155 72 -253 99 -354 99 -371
0 -9 6 -30 14 -47 8 -18 21 -61 30 -97 9 -36 23 -90 31 -120 9 -30 29 -104 45
-165 27 -104 41 -155 76 -285 20 -71 49 -182 79 -295 14 -49 34 -124 45 -165
12 -41 32 -115 45 -165 28 -105 56 -207 79 -285 9 -30 22 -84 30 -120 8 -36
22 -85 30 -109 9 -24 16 -54 16 -68 0 -13 5 -34 12 -46 6 -12 20 -53 29 -92
39 -153 66 -252 94 -345 8 -25 21 -74 29 -110 9 -36 25 -96 37 -135 11 -38 26
-95 34 -125 12 -50 40 -156 80 -300 8 -30 15 -65 15 -77 l0 -23 525 0 525 0 0
13 c-1 17 -22 101 -60 237 -18 63 -38 140 -45 170 -7 30 -25 98 -40 150 -48
169 -66 234 -74 270 -8 32 -25 93 -83 305 -11 39 -28 102 -38 140 -39 149 -51
192 -64 240 -14 49 -34 119 -77 280 -12 44 -30 109 -39 145 -10 36 -28 103
-40 150 -22 84 -44 162 -80 290 -11 36 -22 81 -25 100 -4 19 -13 55 -21 80
-22 73 -51 179 -75 270 -11 47 -30 112 -40 146 -10 33 -19 71 -19 83 0 12 -5
32 -11 43 -6 11 -19 53 -30 92 -26 101 -47 183 -63 241 -8 28 -26 95 -40 150
-15 55 -33 123 -41 150 -7 28 -23 82 -34 120 -11 39 -29 108 -41 155 -12 47
-31 114 -41 150 -10 36 -30 110 -44 165 -15 55 -33 120 -41 144 -8 25 -14 52
-14 60 0 9 -8 45 -19 81 -18 61 -35 120 -83 295 -11 39 -25 90 -33 115 -7 25
-19 72 -25 105 -7 33 -16 68 -21 77 -5 9 -16 45 -24 80 -8 35 -24 97 -35 138
-12 41 -30 107 -40 145 -10 39 -23 88 -30 110 -27 96 -44 153 -56 200 -7 28
-22 85 -33 128 -12 42 -30 110 -40 150 -11 39 -27 99 -35 132 -9 33 -23 83
-31 110 -8 28 -24 86 -35 130 -33 124 -61 224 -81 289 -11 33 -19 71 -19 84 0
13 -5 32 -10 43 -10 17 -41 129 -75 269 -24 97 -42 162 -77 285 -43 148 -50
176 -93 344 -19 73 -39 147 -45 165 -5 17 -16 56 -25 88 l-15 56 -27 9 -28 8
-896 -3z M4089 8154 l-13 -16 13 -31 c7 -18 21 -63 31 -102 37 -141 59 -222
85 -315 14 -52 28 -106 31 -120 3 -14 14 -54 24 -90 10 -36 28 -101 40 -145
12 -44 28 -102 37 -130 9 -27 21 -75 28 -105 15 -63 64 -248 99 -372 8 -29 24
-87 35 -128 49 -181 62 -228 76 -275 8 -27 19 -68 24 -90 9 -40 39 -156 66
-250 7 -27 23 -86 35 -130 12 -44 30 -109 40 -145 10 -36 28 -101 39 -145 42
-158 62 -231 78 -280 9 -27 21 -75 29 -105 13 -57 52 -207 77 -295 8 -27 20
-72 27 -100 7 -27 26 -97 43 -155 16 -58 35 -130 42 -160 8 -30 18 -68 23 -85
16 -47 53 -184 67 -245 12 -56 62 -236 95 -345 10 -33 20 -71 23 -85 3 -14 17
-70 32 -125 14 -55 35 -131 45 -170 10 -38 28 -104 40 -145 12 -41 30 -109 41
-150 11 -41 29 -106 39 -145 10 -38 24 -90 31 -115 6 -25 20 -72 30 -104 11
-33 19 -67 19 -75 0 -15 28 -116 52 -186 5 -16 18 -64 28 -105 10 -41 26 -104
35 -140 9 -36 22 -79 30 -97 8 -17 15 -42 15 -55 0 -13 8 -51 19 -84 32 -101
53 -177 66 -234 7 -30 23 -89 35 -130 11 -41 26 -95 31 -120 10 -40 21 -81 64
-230 7 -25 25 -92 40 -150 15 -58 35 -134 46 -170 10 -36 30 -110 44 -165 14
-55 31 -116 37 -135 6 -19 15 -51 19 -70 3 -19 19 -78 34 -130 15 -52 35 -128
46 -167 10 -40 28 -108 40 -150 11 -43 26 -97 32 -120 l12 -43 932 0 933 0 4
22 c2 13 9 48 15 78 7 30 18 90 26 133 8 43 19 92 25 110 12 37 47 196 61 276
6 30 12 58 15 62 3 5 14 53 25 106 11 54 27 130 34 168 14 68 27 123 61 270
17 73 31 140 58 265 9 41 22 100 30 130 8 30 24 102 36 160 12 58 26 123 32
145 5 22 16 72 23 110 8 39 21 95 29 125 8 30 24 105 36 165 12 61 26 124 32
140 5 17 16 65 23 107 7 43 18 92 24 110 6 18 17 69 26 113 8 44 24 121 36
170 29 126 55 244 79 358 11 54 25 107 30 117 6 10 10 30 10 45 0 14 9 63 19
108 32 134 67 292 100 447 11 52 30 136 41 185 12 50 30 131 41 180 10 50 28
128 39 175 11 47 27 119 35 160 8 41 18 89 24 105 5 17 15 62 21 100 6 39 15
79 20 90 8 18 37 154 60 275 5 25 20 95 34 155 14 61 33 142 41 180 8 39 22
97 29 130 8 33 24 105 35 160 12 55 26 118 31 140 6 22 17 76 25 120 9 44 22
103 30 130 7 28 23 97 35 155 12 58 28 128 36 155 7 28 19 79 25 115 5 36 16
88 24 115 7 28 23 97 35 155 28 136 59 275 72 325 5 22 16 74 24 115 8 41 20
98 28 125 8 28 20 75 26 105 15 69 48 226 64 305 7 33 19 77 27 98 l13 38 -10
17 -11 17 -902 3 -901 2 -18 -18 -19 -19 -12 -79 c-7 -43 -18 -99 -26 -124 -7
-25 -20 -76 -29 -115 -15 -66 -23 -103 -60 -285 -15 -72 -27 -127 -62 -275 -9
-38 -22 -99 -29 -135 -8 -36 -23 -103 -34 -150 -26 -112 -38 -165 -63 -280
-11 -52 -24 -113 -30 -134 -5 -21 -18 -80 -29 -130 -10 -50 -27 -129 -38 -176
-11 -47 -25 -116 -32 -155 -6 -38 -17 -83 -24 -100 -8 -16 -16 -52 -20 -80 -3
-27 -15 -84 -25 -125 -10 -41 -28 -122 -40 -180 -24 -111 -47 -217 -79 -352
-11 -46 -23 -105 -27 -133 -4 -27 -13 -62 -20 -77 -8 -15 -14 -39 -14 -53 0
-14 -8 -60 -19 -103 -10 -42 -24 -102 -30 -132 -39 -186 -51 -240 -61 -280
-10 -44 -36 -158 -60 -270 -7 -30 -21 -93 -32 -140 -11 -47 -25 -115 -33 -152
-12 -63 -23 -113 -61 -273 -8 -33 -21 -94 -30 -135 -27 -133 -51 -244 -63
-292 -18 -78 -32 -138 -51 -228 -10 -47 -23 -103 -29 -125 -12 -49 -42 -186
-71 -325 -12 -58 -28 -125 -35 -150 -8 -25 -19 -77 -25 -115 -6 -39 -13 -78
-16 -87 l-5 -18 -19 0 -19 0 -10 38 c-11 47 -16 65 -47 182 -14 52 -35 129
-45 170 -45 168 -58 217 -68 250 -5 19 -20 73 -32 120 -12 47 -30 112 -39 145
-20 67 -45 160 -85 310 -14 55 -32 123 -40 150 -8 28 -23 82 -34 120 -11 39
-30 108 -42 155 -19 77 -31 121 -74 275 -8 28 -22 79 -31 115 -9 36 -25 97
-36 135 -11 39 -28 102 -37 140 -10 39 -33 122 -50 185 -18 63 -42 151 -53
195 -33 128 -58 216 -75 270 -9 28 -19 66 -24 85 -4 19 -19 80 -34 135 -14 55
-35 132 -45 170 -10 39 -23 88 -30 110 -6 22 -21 74 -32 115 -11 41 -27 98
-36 125 -8 28 -19 68 -23 90 -4 22 -20 81 -34 130 -15 50 -35 124 -45 165 -10
41 -28 109 -40 150 -11 41 -32 118 -46 170 -14 52 -29 109 -34 125 -17 64 -64
233 -82 300 -30 108 -86 318 -109 405 -6 25 -20 74 -30 110 -10 36 -28 101
-39 145 -41 156 -62 230 -72 260 -5 17 -17 61 -25 99 -8 38 -23 89 -34 113
l-18 43 -504 0 -505 0 -13 -16z"/>
</g>
</svg>
