<svg xmlns="http://www.w3.org/2000/svg" viewBox="1151 -10 3975 843" width="3975" height="843" role="img" aria-label="니짐내짐 nijim logo">
<g transform="translate(0.000000,824.000000) scale(0.100000,-0.100000)"
fill="#FFFFFF" stroke="none">
<path d="M27992 8224 l-33 -14 -1352 -10 c-744 -5 -1588 -12 -1877 -16 -289
-4 -637 -8 -775 -9 -137 -1 -276 -2 -307 -3 l-57 -2 -15 -16 -16 -15 0 -25 c0
-13 -9 -52 -19 -86 -11 -35 -29 -99 -41 -143 -12 -44 -30 -109 -39 -145 -22
-78 -36 -131 -61 -230 -10 -41 -28 -106 -38 -145 -23 -79 -55 -197 -82 -300
-10 -38 -30 -110 -44 -160 -14 -49 -31 -114 -37 -143 l-10 -54 6 -15 6 -16
965 6 965 5 6 -16 6 -15 -29 -25 c-16 -13 -123 -117 -239 -230 -115 -114 -372
-364 -570 -557 -198 -192 -481 -469 -630 -615 -148 -146 -369 -362 -490 -480
-121 -118 -292 -287 -381 -374 -89 -87 -173 -165 -188 -173 l-26 -14 0 -18 0
-18 93 -6 c50 -3 505 -6 1009 -7 l918 -1 27 15 28 15 330 330 c181 182 335
331 341 331 6 0 45 -44 86 -97 140 -181 199 -258 223 -293 13 -19 37 -50 54
-67 16 -18 38 -46 48 -63 9 -16 20 -30 23 -30 4 0 24 -24 44 -54 21 -30 48
-62 62 -70 l24 -16 1010 1 1010 1 0 19 0 20 -107 121 c-60 67 -117 131 -128
143 -29 31 -73 82 -133 155 -30 36 -77 90 -105 120 -29 31 -77 85 -107 120
-30 35 -73 84 -95 109 -22 25 -63 73 -90 106 -28 32 -59 69 -70 80 -52 55
-116 126 -169 190 -83 98 -381 438 -443 506 l-53 56 0 18 0 18 398 394 397
394 45 3 c25 2 286 4 580 6 l534 2 18 9 17 9 15 53 c23 85 36 137 51 220 8 43
22 104 30 137 8 32 15 69 15 84 0 14 6 40 14 58 8 18 22 74 31 123 21 109 47
231 74 345 12 47 27 119 35 160 8 42 21 103 30 137 9 34 19 89 22 122 l7 61
-354 -1 -354 -1 -33 -14z M47748 8224 l-27 -14 -1378 -10 c-758 -5 -1589 -12
-1848 -16 -258 -3 -622 -7 -808 -8 l-337 -2 -12 -12 c-14 -14 -23 -43 -74
-237 -25 -96 -75 -280 -89 -330 -7 -27 -23 -86 -35 -130 -11 -44 -30 -108 -40
-142 -11 -34 -20 -70 -20 -80 0 -11 -9 -46 -19 -79 -11 -32 -29 -97 -41 -144
-29 -111 -57 -214 -74 -271 l-13 -47 7 -12 8 -13 970 5 971 5 5 -12 4 -12 -81
-79 c-85 -81 -749 -729 -963 -939 -67 -66 -231 -226 -365 -355 -133 -129 -285
-278 -338 -330 -227 -224 -768 -750 -785 -763 l-18 -13 4 -20 3 -19 995 -2
995 -3 28 8 27 7 340 338 339 337 15 0 15 0 12 -21 c10 -19 98 -135 184 -244
26 -33 67 -87 211 -276 l96 -127 25 -11 25 -11 1003 1 1004 2 5 13 5 13 -57
67 c-31 37 -97 113 -146 168 -48 56 -112 128 -141 161 -131 150 -229 260 -234
265 -3 3 -31 34 -61 70 -30 36 -105 121 -165 190 -61 69 -135 154 -164 190
-45 54 -167 192 -207 234 -6 6 -45 52 -88 101 -43 50 -90 104 -104 120 -98
112 -142 165 -142 172 0 5 173 182 385 393 l385 385 32 17 33 17 564 1 565 1
16 9 17 9 17 78 c9 43 21 96 26 118 6 22 17 74 25 115 9 41 22 102 30 135 8
33 24 105 35 160 12 55 26 118 32 140 5 22 17 78 27 125 39 179 73 337 86 400
8 36 19 81 24 100 6 19 11 56 11 82 l0 48 -352 0 -353 -1 -27 -15z M13421
8157 c-10 -13 -25 -75 -55 -228 -7 -37 -20 -95 -29 -130 -22 -90 -51 -218 -75
-329 -23 -109 -32 -150 -68 -310 -14 -63 -29 -135 -34 -160 -5 -25 -11 -52
-14 -60 -7 -17 -40 -166 -66 -295 -10 -49 -23 -108 -28 -130 -5 -22 -19 -83
-30 -135 -40 -185 -45 -206 -64 -285 -19 -84 -50 -222 -68 -315 -6 -30 -18
-77 -26 -105 -7 -27 -19 -79 -24 -115 -6 -36 -15 -79 -21 -96 -5 -17 -16 -64
-24 -105 -8 -41 -24 -114 -36 -164 -35 -150 -59 -256 -74 -335 -8 -41 -21
-102 -29 -135 -8 -33 -23 -103 -35 -155 -11 -52 -26 -115 -32 -140 -6 -25 -19
-85 -28 -135 -10 -49 -24 -110 -30 -135 -6 -25 -20 -88 -32 -140 -38 -175 -60
-274 -79 -355 -11 -44 -28 -123 -40 -175 -11 -52 -27 -124 -35 -160 -8 -36
-22 -96 -30 -135 -35 -173 -54 -255 -59 -264 -3 -5 -10 -37 -16 -72 -5 -35
-21 -113 -36 -174 -14 -60 -34 -148 -44 -195 -10 -47 -23 -103 -28 -125 -6
-22 -20 -85 -31 -140 -12 -55 -29 -131 -38 -170 -9 -38 -22 -99 -29 -135 -7
-36 -22 -103 -32 -150 -11 -47 -25 -112 -32 -145 -7 -33 -18 -78 -25 -100 -7
-22 -16 -62 -20 -90 -3 -27 -15 -84 -25 -125 -10 -41 -28 -120 -40 -175 -26
-122 -52 -240 -79 -360 -11 -49 -30 -135 -41 -190 -12 -55 -30 -136 -40 -180
-10 -44 -29 -125 -40 -180 -12 -55 -28 -123 -36 -152 -8 -28 -14 -56 -14 -62
l0 -11 2734 0 2733 0 6 50 c3 28 13 74 21 103 15 53 36 141 62 257 53 237 59
261 116 495 10 44 25 109 33 145 8 36 21 90 30 120 8 30 15 65 15 76 0 12 8
48 19 80 10 33 21 79 25 104 l6 45 -8 13 -9 13 -1770 -1 -1771 0 -26 10 -26
10 0 28 c0 16 6 47 14 68 7 22 19 73 25 114 7 41 16 86 21 100 4 14 20 79 35
145 15 66 35 156 45 200 10 44 22 100 25 125 4 25 13 68 20 95 8 28 24 95 35
150 43 198 61 281 75 330 8 28 17 68 20 90 6 37 16 84 66 300 10 44 27 125 39
180 11 55 28 127 36 160 9 33 20 83 24 110 5 28 20 100 34 160 38 165 46 201
68 305 20 94 33 156 84 380 14 63 32 137 40 164 8 26 14 60 14 73 0 14 9 60
20 102 25 97 57 244 65 296 3 22 12 63 20 90 8 28 24 95 35 150 12 55 26 118
32 140 5 22 16 72 23 110 8 39 20 96 29 127 8 31 17 78 21 105 3 26 12 64 20
83 7 19 17 62 23 95 9 55 19 100 73 330 11 44 28 125 39 180 11 55 29 138 40
185 11 47 27 121 35 165 9 44 20 94 25 110 5 17 16 62 24 100 8 39 24 113 36
165 29 127 59 264 70 325 6 28 19 86 29 130 11 44 29 123 41 175 12 52 26 112
31 132 l10 38 -11 20 -11 20 -903 0 -904 0 -11 -13z M19677 8158 l-17 -13 -20
-104 c-11 -57 -23 -107 -26 -112 -3 -5 -9 -30 -14 -57 -4 -26 -20 -99 -35
-162 -14 -63 -35 -155 -45 -205 -21 -100 -49 -228 -81 -367 -12 -51 -26 -115
-31 -143 -5 -27 -18 -86 -29 -130 -10 -44 -28 -123 -40 -175 -11 -52 -30 -131
-40 -175 -10 -44 -22 -102 -25 -130 -4 -27 -10 -54 -14 -60 -4 -5 -10 -28 -14
-50 -9 -55 -45 -220 -61 -280 -8 -27 -17 -68 -20 -90 -4 -22 -15 -76 -25 -120
-19 -81 -46 -207 -81 -370 -11 -49 -25 -110 -30 -135 -6 -25 -19 -81 -29 -125
-10 -44 -23 -93 -29 -108 -6 -16 -11 -40 -11 -53 0 -23 -20 -120 -55 -269 -8
-33 -26 -114 -40 -180 -14 -66 -34 -160 -46 -210 -11 -49 -29 -130 -40 -180
-11 -49 -29 -126 -39 -170 -10 -44 -28 -125 -40 -180 -12 -55 -28 -127 -36
-160 -8 -33 -21 -94 -30 -135 -38 -187 -44 -219 -58 -275 -8 -33 -24 -105 -36
-160 -12 -55 -30 -136 -40 -180 -10 -44 -28 -125 -40 -180 -12 -55 -28 -122
-35 -150 -8 -27 -19 -78 -24 -113 -5 -34 -13 -66 -16 -72 -3 -5 -14 -53 -25
-107 -10 -54 -23 -116 -29 -138 -5 -22 -19 -83 -30 -135 -11 -52 -32 -147 -46
-210 -35 -155 -51 -227 -76 -345 -12 -55 -27 -120 -34 -145 -7 -25 -18 -76
-24 -115 -6 -38 -18 -88 -26 -110 -8 -22 -14 -51 -15 -65 0 -14 -7 -53 -16
-85 -17 -66 -49 -209 -65 -295 -5 -30 -14 -64 -19 -75 -4 -11 -11 -40 -15 -65
-6 -43 -25 -131 -66 -305 -10 -44 -22 -104 -25 -132 l-7 -53 927 0 926 0 0 43
c0 24 6 66 14 93 7 27 26 103 40 169 15 66 36 156 46 200 10 44 30 139 45 210
14 72 30 146 36 165 5 19 16 69 25 110 9 41 22 102 29 135 7 33 25 116 39 184
15 68 29 127 32 132 3 5 11 41 18 81 8 40 24 116 36 168 12 52 31 136 42 185
11 50 28 126 38 170 40 178 71 323 79 370 5 28 14 61 19 75 6 14 15 54 22 90
6 36 17 92 25 125 7 33 23 103 35 155 12 52 28 122 36 155 16 69 39 176 60
285 8 41 20 98 28 125 8 28 19 77 26 110 6 33 21 98 31 145 11 47 26 117 34
155 8 39 21 97 29 130 8 33 24 105 36 160 12 55 30 136 40 180 10 44 22 98 26
120 3 22 12 60 19 85 7 25 23 92 35 150 12 58 28 132 36 165 8 33 21 92 29
130 8 39 26 124 40 190 15 66 30 138 35 160 4 22 15 72 24 110 10 39 26 108
36 155 25 117 58 268 81 375 11 50 26 117 34 150 15 65 55 238 85 375 10 47
24 108 30 135 6 28 18 86 26 130 8 44 19 91 25 105 5 14 14 48 18 75 5 28 17
82 25 120 9 39 25 111 35 160 24 110 34 158 67 300 14 61 32 142 40 180 7 39
23 108 35 155 11 47 27 123 34 169 l14 84 10 10 11 11 0 27 0 27 -16 6 -16 6
-892 0 -892 0 -17 -12z M29581 8161 l-14 -9 -7 -43 c-4 -24 -15 -75 -24 -114
-20 -80 -46 -197 -76 -340 -12 -55 -28 -122 -35 -150 -8 -27 -19 -84 -25 -125
-7 -41 -16 -84 -20 -95 -9 -20 -30 -116 -55 -245 -7 -36 -17 -76 -22 -90 -6
-14 -13 -47 -17 -75 -4 -27 -14 -75 -22 -105 -9 -30 -22 -88 -29 -130 -8 -41
-23 -113 -35 -160 -12 -47 -27 -114 -34 -150 -7 -36 -20 -96 -29 -135 -50
-214 -97 -425 -102 -460 -4 -22 -22 -103 -40 -180 -18 -77 -42 -187 -54 -245
-13 -58 -31 -141 -41 -185 -46 -199 -91 -406 -100 -457 -5 -27 -12 -53 -15
-58 -4 -6 -15 -55 -26 -108 -31 -164 -49 -246 -59 -277 -5 -16 -16 -66 -25
-110 -8 -44 -24 -118 -35 -165 -12 -47 -30 -125 -40 -175 -19 -93 -28 -133
-61 -270 -10 -45 -19 -87 -19 -95 0 -8 -7 -23 -14 -33 l-13 -17 -3039 0 -3039
0 -12 -8 c-16 -10 -43 -75 -43 -103 0 -21 -23 -128 -61 -279 -10 -41 -28 -120
-39 -175 -12 -55 -30 -136 -40 -180 -10 -44 -21 -91 -24 -105 -3 -14 -17 -74
-31 -135 -14 -60 -34 -150 -45 -200 -11 -49 -29 -128 -40 -175 -11 -47 -27
-119 -35 -160 -9 -41 -31 -142 -50 -225 -67 -289 -75 -321 -89 -385 -47 -215
-69 -311 -82 -355 -8 -27 -19 -80 -24 -117 -6 -37 -14 -78 -20 -92 -5 -13 -14
-53 -20 -88 -6 -34 -17 -85 -25 -113 -7 -27 -23 -95 -35 -150 -12 -55 -30
-134 -41 -176 -10 -42 -19 -90 -19 -108 l0 -31 3988 0 3988 0 22 107 c12 60
26 126 32 148 5 22 19 85 30 140 12 55 32 150 46 210 35 154 50 225 75 340 11
55 25 118 31 140 15 64 54 236 90 405 11 52 24 111 30 130 9 33 33 144 63 295
8 39 22 102 31 140 32 139 81 358 114 510 12 55 30 136 40 180 10 44 28 123
39 175 12 52 30 133 40 180 11 47 29 130 41 185 26 123 55 254 80 360 31 138
59 266 81 370 11 55 29 134 39 175 10 41 28 120 40 175 12 55 28 125 35 156 8
30 19 86 25 124 6 38 15 74 19 80 5 5 11 33 15 60 3 28 15 86 25 130 11 44 29
125 41 180 12 55 27 118 32 140 5 22 16 76 24 119 9 44 19 87 24 95 4 9 11 39
15 66 4 28 15 84 25 125 44 187 54 229 66 290 14 70 40 190 74 340 12 52 28
127 36 165 8 39 23 106 34 150 10 44 26 114 35 155 19 86 46 211 74 338 11 48
29 132 41 187 11 55 30 134 40 176 11 42 20 89 20 103 0 15 5 37 12 49 6 12
20 65 30 117 10 52 27 133 37 180 11 47 27 122 36 167 l18 83 -13 15 -12 15
-897 0 -896 0 -14 -9z m-1381 -6130 l10 -20 -14 -63 c-7 -35 -19 -83 -25 -108
-22 -88 -61 -278 -61 -298 0 -12 -4 -23 -9 -26 l-9 -6 -7 -53 c-9 -69 -23
-125 -35 -132 -5 -3 -1013 -5 -2241 -5 l-2233 0 -10 10 -10 10 13 58 c28 125
53 240 66 297 7 33 20 89 28 125 9 36 22 94 28 129 l12 64 19 19 18 18 2225 0
2224 0 11 -19z M33261 8157 c-6 -8 -18 -45 -26 -83 -9 -38 -24 -107 -34 -154
-11 -47 -28 -125 -39 -175 -12 -49 -26 -115 -32 -145 -6 -30 -20 -91 -31 -135
-10 -44 -23 -102 -29 -130 -17 -88 -60 -283 -111 -505 -10 -47 -26 -119 -35
-160 -8 -41 -21 -97 -28 -125 -14 -52 -24 -98 -55 -250 -45 -219 -53 -253 -65
-300 -34 -130 -56 -233 -56 -258 0 -16 -5 -38 -12 -50 -6 -12 -20 -65 -30
-117 -19 -100 -41 -202 -78 -360 -12 -52 -28 -124 -35 -160 -7 -36 -20 -96
-29 -135 -9 -38 -26 -113 -37 -165 -11 -52 -28 -124 -36 -159 -9 -35 -22 -93
-29 -130 -7 -36 -21 -104 -32 -151 -11 -47 -25 -110 -32 -140 -6 -30 -18 -80
-26 -110 -7 -30 -21 -91 -30 -135 -19 -92 -48 -228 -64 -300 -7 -27 -21 -93
-32 -145 -11 -52 -31 -142 -45 -200 -28 -124 -39 -171 -58 -265 -8 -38 -20
-90 -25 -115 -6 -25 -16 -63 -21 -85 -5 -22 -18 -83 -29 -135 -18 -91 -46
-214 -68 -310 -6 -25 -20 -90 -32 -145 -12 -55 -27 -122 -35 -150 -8 -27 -17
-70 -21 -95 -3 -25 -14 -76 -24 -115 -9 -38 -27 -113 -38 -165 -11 -52 -26
-117 -32 -145 -6 -27 -19 -90 -30 -140 -10 -49 -24 -112 -30 -140 -7 -27 -21
-90 -31 -140 -37 -166 -49 -219 -74 -330 -41 -179 -60 -264 -125 -570 -12 -55
-28 -126 -36 -158 -8 -32 -14 -63 -14 -68 l0 -9 1725 0 c949 0 1725 1 1725 3
0 13 33 173 44 212 8 28 24 95 36 150 13 55 29 127 38 160 8 33 18 81 23 107
4 27 11 53 14 58 4 6 15 50 25 98 20 93 62 278 86 377 8 33 23 98 33 145 11
47 24 103 30 124 l10 40 -8 14 -8 14 -765 -2 -765 -1 -26 10 -27 11 0 28 c0
16 6 51 14 78 8 27 20 83 27 124 7 41 16 80 20 85 4 6 10 28 14 50 7 42 39
192 56 260 5 22 18 83 29 135 41 201 51 247 64 295 7 28 18 75 24 105 6 30 21
93 32 140 11 47 29 128 40 180 10 52 23 113 29 135 5 22 19 85 31 140 12 55
30 136 40 180 29 126 59 262 82 365 11 52 25 113 30 135 5 22 18 81 28 130 17
84 61 287 80 365 19 77 63 279 75 341 7 37 19 95 28 130 16 63 46 197 66 294
6 28 19 88 30 135 43 192 60 268 71 320 6 30 17 78 25 105 7 28 19 84 25 125
6 41 15 82 20 90 4 9 11 36 14 60 8 52 40 192 61 265 7 28 18 82 24 122 6 39
16 84 22 100 5 15 17 61 25 103 7 41 23 113 34 160 11 47 29 126 40 175 10 50
31 142 45 205 14 63 30 135 35 160 48 218 63 287 79 366 11 50 24 109 30 130
23 87 51 212 57 257 l6 47 -12 15 -12 15 -898 0 -898 0 -11 -13z M37434 8134
c-9 -20 -22 -73 -30 -118 -7 -44 -18 -92 -23 -106 -5 -14 -15 -56 -21 -95 -6
-38 -17 -90 -24 -115 -13 -42 -23 -87 -75 -335 -24 -111 -35 -160 -67 -300
-14 -60 -30 -130 -34 -155 -5 -25 -21 -94 -35 -155 -14 -60 -30 -135 -36 -165
-5 -30 -18 -91 -29 -135 -10 -44 -28 -125 -40 -180 -12 -55 -30 -134 -40 -175
-10 -41 -21 -95 -25 -120 -4 -25 -13 -65 -20 -90 -7 -25 -23 -92 -35 -150 -12
-58 -28 -130 -36 -160 -8 -30 -21 -89 -29 -130 -14 -76 -24 -122 -52 -240 -8
-36 -19 -87 -23 -115 -5 -27 -16 -79 -25 -115 -27 -106 -56 -238 -114 -505
-51 -233 -74 -334 -87 -377 -8 -26 -14 -56 -14 -68 0 -11 -8 -55 -19 -98 -10
-42 -23 -99 -29 -127 -17 -83 -42 -196 -56 -260 -8 -33 -24 -107 -36 -165 -12
-58 -28 -126 -36 -151 -7 -25 -16 -65 -20 -90 -3 -24 -14 -75 -24 -114 -9 -38
-27 -117 -40 -175 -12 -58 -26 -123 -32 -144 -5 -21 -18 -80 -28 -130 -41
-197 -59 -276 -64 -285 -3 -5 -10 -35 -16 -68 -5 -32 -21 -107 -35 -168 -14
-60 -34 -150 -44 -200 -11 -49 -24 -108 -30 -130 -5 -22 -19 -85 -31 -140 -12
-55 -29 -127 -36 -160 -8 -33 -21 -94 -29 -135 -8 -41 -19 -93 -24 -115 -6
-22 -20 -85 -32 -140 -22 -105 -61 -282 -84 -375 -7 -30 -23 -102 -35 -160
-36 -172 -60 -281 -81 -361 -10 -42 -19 -90 -19 -108 l0 -31 808 0 808 0 13
68 c8 37 29 132 48 212 36 152 58 252 73 335 5 28 19 91 30 140 11 50 30 131
41 180 11 50 29 126 39 170 10 44 28 125 40 180 12 55 31 141 42 190 34 152
56 256 74 340 9 44 27 127 40 185 14 58 34 148 45 200 12 52 29 131 39 175 18
76 35 157 82 375 11 52 26 118 34 145 8 28 21 84 28 125 19 104 44 216 62 274
7 27 14 63 14 79 0 33 38 166 53 185 l9 12 307 0 307 0 19 -14 19 -14 -12 -23
c-6 -13 -16 -55 -22 -93 -6 -38 -15 -76 -19 -85 -5 -9 -11 -34 -15 -56 -4 -22
-15 -76 -25 -120 -38 -161 -52 -221 -66 -290 -24 -121 -52 -248 -63 -295 -6
-25 -20 -90 -32 -145 -12 -55 -30 -136 -40 -180 -27 -116 -57 -252 -80 -357
-11 -51 -28 -124 -37 -163 -9 -38 -22 -99 -29 -135 -7 -36 -22 -103 -32 -150
-11 -47 -25 -112 -32 -145 -7 -33 -18 -78 -25 -100 -7 -22 -16 -62 -20 -90 -3
-27 -13 -73 -21 -102 -8 -29 -21 -87 -29 -130 -16 -83 -39 -187 -75 -343 -12
-52 -31 -135 -41 -185 -10 -49 -23 -110 -29 -135 -36 -139 -50 -199 -50 -209
l0 -11 814 0 813 0 17 77 c9 43 21 101 26 128 5 28 18 86 28 130 11 44 30 125
42 180 12 55 30 136 40 180 11 44 22 98 25 120 4 22 11 54 15 70 5 17 21 84
35 150 38 178 65 300 86 390 10 44 23 103 28 130 10 54 51 238 75 345 15 63
38 165 77 340 10 47 25 119 33 161 8 41 22 103 30 137 9 34 23 90 32 124 8 34
21 96 29 137 8 42 19 94 24 116 6 22 20 85 31 140 12 55 28 123 35 150 8 28
19 79 25 115 6 36 17 88 25 115 16 59 51 223 60 280 4 22 10 45 15 50 4 6 10
33 14 60 3 28 15 88 26 135 23 94 47 203 80 355 12 55 30 136 40 180 11 44 29
125 40 180 12 55 28 127 36 160 8 33 21 92 29 130 7 39 25 124 40 190 15 66
30 138 34 160 4 22 15 67 23 100 25 95 50 204 64 275 7 36 18 88 24 115 6 28
21 93 32 145 11 52 26 118 33 145 8 28 19 79 25 115 6 36 17 88 25 115 7 28
23 97 35 155 12 58 26 123 32 145 6 22 19 81 29 130 9 50 22 108 27 130 6 22
20 85 32 140 43 194 62 281 80 360 11 44 22 98 25 120 4 22 13 60 20 85 7 25
18 70 24 100 5 30 20 98 31 150 12 52 28 124 34 160 7 36 19 82 26 102 l14 37
-14 15 -13 16 -795 -2 -795 -3 -7 -15 c-4 -8 -18 -60 -30 -115 -12 -55 -30
-136 -40 -180 -10 -44 -23 -102 -30 -130 -6 -27 -17 -84 -25 -125 -7 -42 -20
-100 -28 -130 -8 -30 -25 -100 -37 -155 -12 -55 -30 -134 -40 -175 -10 -41
-21 -99 -25 -127 l-7 -53 -9 -6 c-5 -3 -9 -14 -9 -26 0 -22 -41 -219 -65 -308
-8 -30 -22 -91 -31 -135 -22 -109 -78 -367 -102 -475 -47 -204 -66 -290 -114
-510 -11 -52 -28 -129 -38 -170 -10 -41 -21 -97 -25 -123 -4 -27 -15 -69 -25
-93 l-19 -44 -305 0 c-167 0 -311 3 -320 6 l-16 6 0 27 c0 14 7 58 16 96 9 39
24 108 34 155 21 93 34 151 57 250 8 36 21 94 28 130 7 36 23 108 35 160 12
52 30 133 40 180 35 167 50 229 59 252 4 13 11 46 15 73 4 28 16 86 26 130 10
44 28 125 40 180 21 95 32 142 79 350 11 50 30 135 41 190 12 55 30 136 40
180 32 140 41 178 55 255 8 41 21 100 29 130 26 100 56 234 62 283 l7 49 -14
9 -14 9 -788 0 -788 0 -15 -36z M49326 8149 l-14 -21 4 -13 5 -13 -14 -34 c-8
-19 -18 -55 -22 -79 -3 -24 -15 -82 -26 -129 -10 -47 -28 -123 -39 -170 -24
-109 -60 -267 -120 -540 -47 -211 -59 -268 -65 -305 -4 -22 -13 -62 -20 -90
-7 -27 -23 -95 -35 -150 -12 -55 -31 -136 -41 -180 -10 -44 -23 -102 -29 -130
-21 -108 -33 -162 -46 -205 -7 -25 -17 -72 -23 -105 -5 -33 -14 -72 -20 -88
-6 -15 -15 -58 -21 -95 -10 -67 -24 -128 -61 -273 -10 -42 -19 -91 -19 -108 0
-18 -5 -42 -12 -54 -6 -12 -20 -65 -30 -117 -10 -52 -24 -122 -32 -155 -8 -33
-26 -114 -41 -180 -15 -66 -35 -158 -46 -205 -10 -47 -26 -123 -35 -170 -9
-47 -22 -103 -30 -125 -7 -22 -14 -51 -14 -64 0 -13 -9 -58 -19 -100 -22 -87
-34 -139 -61 -267 -10 -50 -23 -109 -28 -130 -6 -21 -20 -84 -32 -139 -12 -55
-30 -136 -41 -180 -10 -44 -21 -96 -24 -116 l-6 -37 -14 -12 -14 -11 -3038 0
-3038 1 -15 -10 -15 -9 -18 -83 c-10 -46 -24 -112 -31 -148 -7 -36 -18 -83
-24 -105 -22 -78 -96 -410 -108 -480 -4 -22 -10 -44 -14 -50 -4 -5 -10 -30
-14 -55 -4 -25 -15 -83 -26 -130 -11 -47 -24 -105 -30 -130 -5 -25 -22 -101
-39 -170 -28 -120 -46 -201 -92 -410 -11 -52 -29 -129 -39 -170 -10 -41 -21
-95 -25 -120 -4 -25 -13 -65 -20 -90 -19 -63 -52 -208 -90 -395 -8 -38 -21
-97 -29 -130 -8 -33 -24 -105 -36 -160 -13 -55 -28 -122 -36 -150 -7 -27 -19
-86 -28 -130 -8 -44 -19 -91 -24 -105 -5 -14 -13 -49 -17 -77 l-7 -53 3990 0
3990 0 5 33 c3 17 14 72 25 122 12 50 28 122 36 160 9 39 22 97 30 130 8 33
20 85 26 115 6 30 21 96 31 145 11 50 28 128 38 175 10 47 23 103 29 125 29
112 102 458 102 483 0 12 4 23 9 26 l9 6 7 53 c4 28 15 86 25 127 24 94 57
239 69 305 5 28 14 68 20 90 10 41 36 159 72 325 12 52 29 129 39 170 10 41
22 98 26 125 3 28 11 58 16 69 5 10 14 47 19 83 5 36 15 86 23 111 13 45 19
71 52 237 8 39 19 81 24 95 5 14 14 59 20 100 6 41 16 95 24 120 7 25 23 90
35 145 13 55 31 141 42 190 11 50 29 128 39 175 11 47 38 168 60 270 66 302
81 371 100 450 10 41 21 98 25 125 4 28 11 57 16 66 4 9 13 47 19 85 6 38 17
89 25 114 7 25 23 92 35 150 12 58 28 130 36 160 8 30 20 89 28 130 8 41 19
93 24 115 6 22 20 85 31 140 38 180 63 289 82 355 9 36 20 90 24 120 3 30 12
75 20 100 8 25 23 90 35 145 11 55 29 138 40 185 26 115 56 252 79 358 11 48
24 110 31 137 6 28 17 82 25 120 8 39 22 99 30 135 8 36 27 117 40 180 14 63
32 142 39 175 8 33 22 96 31 140 9 44 21 95 26 113 l11 33 -12 14 -12 15 -904
0 -903 0 -15 -21z m-1367 -6116 l9 -16 -8 -26 c-4 -14 -15 -62 -25 -106 -9
-44 -25 -116 -35 -160 -26 -110 -57 -248 -71 -318 -7 -32 -17 -64 -23 -72
l-11 -15 -2234 0 -2234 -1 -10 10 -9 9 12 58 c6 33 18 82 25 109 29 108 42
168 94 420 l21 100 17 13 17 12 2228 0 2227 0 10 -17z"/>
</g>
</svg>
